<?xml version="1.0" encoding="utf-8"?>
<!-- Generator: Adobe Illustrator 20.0.0, SVG Export Plug-In . SVG Version: 6.00 Build 0)  -->
<svg version="1.1" id="Camada_1" xmlns="http://www.w3.org/2000/svg" xmlns:xlink="http://www.w3.org/1999/xlink" x="0px" y="0px"
	 viewBox="0 0 847 85" style="enable-background:new 0 0 847 85;" xml:space="preserve">
<style type="text/css">
	.st0{fill:#18B298;}
	.st1{fill:#FFFFFF;}
</style>
<g>
	<path class="st0" d="M340.1,72.9h-15.5V61.1c7.5-0.9,13.4-7.3,13.4-15.1c0-13.5-13-39.9-13.6-41c-0.3-0.6-0.9-1-1.6-1
		s-1.3,0.4-1.6,1c0,0.1-3.4,6.9-6.8,15.3c-2.7,6.6-4.5,12.4-5.7,17.1l-21.5-12.1c-0.5-0.3-1.2-0.3-1.8,0l-12.5,7v-1.8h0.1
		c1,0,1.8-0.8,1.8-1.8s-0.8-1.8-1.8-1.8h-11.5c-1,0-1.8,0.8-1.8,1.8s0.8,1.8,1.8,1.8h0.1v8.2l-1.8,1c-0.4-1.6-0.8-3.2-1.3-4.8
		c-2.5-7.9-5.3-11.8-8.5-11.8s-6,3.9-8.5,11.8c-1.8,5.7-2.9,11.9-2.9,14.4c0,4.9,4.2,9.1,9.6,9.8v13.8h-15.5c-1,0-1.8,0.8-1.8,1.8
		s0.8,1.8,1.8,1.8H340c1,0,1.8-0.8,1.8-1.8C341.9,73.7,341.1,72.9,340.1,72.9L340.1,72.9z M290.4,61.4h-0.1c-1,0-1.8,0.8-1.8,1.8
		c0,1,0.8,1.8,1.8,1.8h0.1v7.9h-7.9V53.5h7.9V61.4z M294,51.7c0-1-0.8-1.8-1.8-1.8h-11.5c-1,0-1.8,0.8-1.8,1.8v21.2h-19.4V54.8
		c0.9-1.2,1.6-2.6,1.8-4.2l25.1-14.1l21.5,12.1c0.1,0.5,0.2,1,0.3,1.5c-0.2-0.1-0.4-0.1-0.7-0.1h-7.6c-1,0-1.8,0.8-1.8,1.8v13.4
		c0,1,0.8,1.8,1.8,1.8h7.7c1,0,1.8-0.8,1.8-1.8V52.9c1,1.9,2.4,3.6,4.1,5V73h-19.4V51.7H294z M305.7,55.7h-4.1v-2.2h4.1V55.7z
		 M301.7,59.3h4.1v4.1h-4.1V59.3z M317,60c1.3,0.5,2.6,0.9,4.1,1.1v11.8H317V60z M322.9,9.9c3.5,7.6,11.6,26.1,11.6,36.1
		c0,5.8-4.3,10.6-9.8,11.5V46.7l5.2-5.2c0.7-0.7,0.7-1.8,0-2.5s-1.8-0.7-2.5,0l-2.7,2.7v-3.3c0-1-0.8-1.8-1.8-1.8s-1.8,0.8-1.8,1.8
		v9.1l-2.7-2.7c-0.7-0.7-1.8-0.7-2.5,0s-0.7,1.8,0,2.5l5.2,5.2v5c-5.6-0.9-9.8-5.7-9.8-11.5C311.2,36,319.3,17.5,322.9,9.9
		L322.9,9.9z M265.2,30.5h4.1v3.9l-4.1,2.3V30.5z M286.4,28.9L308,41.1c-0.2,1.2-0.3,2.3-0.4,3.3l-20.4-11.5c-0.5-0.3-1.2-0.3-1.8,0
		L261,46.6c-0.1-1-0.3-2.1-0.5-3.2L286.4,28.9z M242.2,49.3c0-1.9,1-7.8,2.7-13.4c2.4-7.6,4.5-9.3,5.1-9.3s2.7,1.7,5.1,9.3
		c1.8,5.6,2.7,11.5,2.7,13.4c0,3-2.6,5.5-6,6.2v-5.7c0-1-0.8-1.8-1.8-1.8s-1.8,0.8-1.8,1.8v5.7C244.8,54.8,242.2,52.3,242.2,49.3
		L242.2,49.3z M251.8,59.1c1.5-0.2,2.8-0.7,4.1-1.3v15.1h-4.1V59.1z"/>
	<path class="st0" d="M273,49.9h-7.7c-1,0-1.8,0.8-1.8,1.8v13.4c0,1,0.8,1.8,1.8,1.8h7.7c1,0,1.8-0.8,1.8-1.8V51.7
		C274.8,50.7,274,49.9,273,49.9L273,49.9z M271.2,53.5v2.2h-4.1v-2.2H271.2z M267.2,63.3v-4.1h4.1v4.1H267.2z"/>
</g>
<g>
	<path class="st1" d="M22.5,66.3l6-40.6h7.2L28,75.5H16.3L8.6,25.7h7.9L22.5,66.3z"/>
	<path class="st1" d="M47.1,46.7h10.7v7.1H47.1v14.6h13.5v7.1H39.3V25.7h21.3v7.1H47.1V46.7z"/>
	<path class="st1" d="M72.4,39.4v36.1h-7V25.7h9.8l8,29.8V25.7h7v49.8h-8L72.4,39.4z"/>
	<path class="st1" d="M95.8,25.7h12.4c7.8,0,11.7,4.3,11.7,12.3v25.2c0,8-3.8,12.3-11.7,12.3H95.8V25.7z M103.6,32.8v35.6h4.4
		c2.5,0,4-1.3,4-4.8V37.7c0-3.6-1.5-4.8-4-4.8H103.6z"/>
	<path class="st1" d="M132.6,46.7h10.7v7.1h-10.7v14.6h13.5v7.1h-21.3V25.7h21.3v7.1h-13.5V46.7z"/>
	<path class="st1" d="M150.6,47.1h14.2v7.1h-14.2V47.1z"/>
	<path class="st1" d="M180.7,25.2c7.6,0,11.5,4.6,11.5,12.5v1.6h-7.4v-2.1c0-3.6-1.4-4.9-3.9-4.9c-2.5,0-3.9,1.4-3.9,4.9
		c0,10.2,15.3,12.2,15.3,26.4c0,8-4,12.5-11.7,12.5c-7.7,0-11.7-4.6-11.7-12.5v-3.1h7.4v3.6c0,3.6,1.6,4.8,4.1,4.8s4.1-1.3,4.1-4.8
		c0-10.2-15.3-12.2-15.3-26.4C169.2,29.7,173.1,25.2,180.7,25.2z"/>
	<path class="st1" d="M204.6,46.7h10.7v7.1h-10.7v14.6h13.5v7.1h-21.3V25.7h21.3v7.1h-13.5V46.7z"/>
</g>
<g>
	<path class="st1" d="M380,75.5h-7.9l-1.4-9h-9.6l-1.4,9h-7.2l8-49.8H372L380,75.5z M362.2,59.7h7.5l-3.8-25.2L362.2,59.7z"/>
	<path class="st1" d="M393.7,66.3l6-40.6h7.2l-7.7,49.8h-11.7l-7.7-49.8h7.9L393.7,66.3z"/>
	<path class="st1" d="M413.7,68v7.5h-7.5V68H413.7z"/>
	<path class="st1" d="M430.4,25.7h7.8v49.8h-7.8V25.7z"/>
	<path class="st1" d="M460.3,75.5c-0.4-1.3-0.7-2.1-0.7-6.1v-7.8c0-4.6-1.6-6.3-5.1-6.3h-2.7v20.3h-7.8V25.7h11.8
		c8.1,0,11.6,3.8,11.6,11.4v3.9c0,5.1-1.6,8.5-5.1,10.1c3.9,1.6,5.2,5.4,5.2,10.6v7.7c0,2.4,0.1,4.2,0.9,6H460.3z M451.7,32.8v15.3
		h3.1c2.9,0,4.7-1.3,4.7-5.3V38c0-3.6-1.2-5.1-4-5.1H451.7z"/>
	<path class="st1" d="M497.8,75.5h-7.9l-1.4-9H479l-1.4,9h-7.2l8-49.8h11.4L497.8,75.5z M480,59.7h7.5l-3.8-25.2L480,59.7z"/>
	<path class="st1" d="M513.7,15.2l-7.3,7.9h-5.3l4.8-7.9H513.7z M501.4,25.7h7.8v49.8h-7.8V25.7z"/>
	<path class="st1" d="M530.8,32c6,0,7.4-2.9,8.6-6.3h5.3v49.8h-7.8v-38h-6V32z"/>
	<path class="st1" d="M561.2,59.4v4.6c0,3.6,1.6,4.8,4.1,4.8c2.5,0,4.1-1.3,4.1-4.8v-11c0-3.6-1.6-4.9-4.1-4.9
		c-2.5,0-4.1,1.4-4.1,4.9v1.5h-7.4l1.4-28.9h20.6v7.1h-13.6l-0.6,11.9c1.4-2.3,3.7-3.6,6.8-3.6c5.8,0,8.7,4.1,8.7,11.4v11.1
		c0,8-4,12.5-11.7,12.5s-11.7-4.6-11.7-12.5v-4.1H561.2z"/>
	<path class="st1" d="M597.4,38c0-4.5-1.6-5.7-4.1-5.7c-2.5,0-4.1,1.4-4.1,4.9v3.2h-7.4v-2.7c0-8,4-12.5,11.7-12.5
		s11.7,4.6,11.7,12.5V39c0,5.3-1.7,8.7-5.5,10.2c3.9,1.7,5.5,5.4,5.5,10.5v3.9c0,8-4,12.5-11.7,12.5s-11.7-4.6-11.7-12.5v-4.1h7.4
		v4.6c0,3.6,1.6,4.9,4.1,4.9c2.5,0,4.1-1.2,4.1-5.6v-3.9c0-4.6-1.6-6.3-5.1-6.3h-2.6V46h3.1c2.9,0,4.7-1.3,4.7-5.3V38z"/>
	<path class="st1" d="M621.7,76.1c-7.9,0-12.2-4.6-12.2-12.5v-3.9c0-4.8,1.4-8.5,4.8-10.4c-3.3-1.8-4.8-5.1-4.8-10v-1.6
		c0-8,4.3-12.5,12.2-12.5c7.9,0,12.2,4.6,12.2,12.5v1.6c0,4.9-1.6,8.2-4.8,10c3.4,1.9,4.8,5.6,4.8,10.4v3.9
		C633.9,71.5,629.6,76.1,621.7,76.1z M617.3,40.7c0,4,1.8,5.3,4.4,5.3c2.5,0,4.4-1.3,4.4-5.3V38c0-4.5-1.9-5.7-4.4-5.7
		s-4.4,1.2-4.4,5.7V40.7z M621.7,69c2.5,0,4.3-1.2,4.4-5.6v-4.6c0-3.9-1.6-5.6-4.4-5.6c-2.8,0-4.4,1.7-4.4,5.6v4.6
		C617.3,67.8,619.2,69,621.7,69z"/>
	<path class="st1" d="M649.3,47.1h14.2v7.1h-14.2V47.1z"/>
	<path class="st1" d="M696.4,61.1l5.3-35.3h10.9v49.8h-7.4V39.8l-5.4,35.7h-7.4l-5.8-35.2v35.2h-6.8V25.7h10.9L696.4,61.1z"/>
	<path class="st1" d="M717.7,37.7c0-8,4.2-12.5,11.9-12.5s11.9,4.6,11.9,12.5v25.9c0,8-4.2,12.5-11.9,12.5s-11.9-4.6-11.9-12.5V37.7
		z M725.5,64.1c0,3.6,1.6,4.9,4.1,4.9s4.1-1.4,4.1-4.9V37.2c0-3.6-1.6-4.9-4.1-4.9s-4.1,1.4-4.1,4.9V64.1z"/>
	<path class="st1" d="M754.3,46.7H765v7.1h-10.7v14.6h13.5v7.1h-21.3V25.7h21.3v7.1h-13.5V46.7z"/>
	<path class="st1" d="M789.2,61.1l5.3-35.3h10.9v49.8H798V39.8l-5.4,35.7h-7.4l-5.8-35.2v35.2h-6.8V25.7h10.9L789.2,61.1z"/>
	<path class="st1" d="M836.4,75.5h-7.9l-1.4-9h-9.6l-1.4,9H809l8-49.8h11.4L836.4,75.5z M818.5,59.7h7.5l-3.8-25.2L818.5,59.7z"/>
</g>
</svg>
