<?xml version="1.0" encoding="utf-8"?>
<!-- Generator: Adobe Illustrator 20.1.0, SVG Export Plug-In . SVG Version: 6.00 Build 0)  -->
<svg version="1.1" id="Camada_1" xmlns="http://www.w3.org/2000/svg" xmlns:xlink="http://www.w3.org/1999/xlink" x="0px" y="0px"
	 viewBox="0 0 40 40" style="enable-background:new 0 0 40 40;" xml:space="preserve">
<style type="text/css">
	.st0{clip-path:url(#SVGID_2_);fill:#022551;}
	.st1{fill:#022551;}
</style>
<g>
	<g>
		<defs>
			<rect id="SVGID_1_" x="1.7" y="3.4" width="36.6" height="36.6"/>
		</defs>
		<clipPath id="SVGID_2_">
			<use xlink:href="#SVGID_1_"  style="overflow:visible;"/>
		</clipPath>
		<path class="st0" d="M37.4,18.3H35c-0.4-1.7-1.1-3.3-2-4.8l1.7-1.7c0.4-0.4,0.4-0.9,0-1.3L31.2,7c-0.2-0.2-0.4-0.3-0.7-0.3
			c-0.2,0-0.5,0.1-0.7,0.3l-1.7,1.7c-1.5-0.9-3.1-1.6-4.8-2V4.3c0-0.5-0.4-0.9-0.9-0.9h-5c-0.5,0-0.9,0.4-0.9,0.9v2.4
			c-1.7,0.4-3.3,1.1-4.8,2L10.1,7C9.9,6.8,9.7,6.7,9.5,6.7C9.2,6.7,9,6.8,8.8,7l-3.5,3.5c-0.4,0.4-0.4,0.9,0,1.3L7,13.5
			C6,15,5.4,16.6,5,18.3H2.6c-0.5,0-0.9,0.4-0.9,0.9v5c0,0.5,0.4,0.9,0.9,0.9H5c0.4,1.7,1.1,3.3,2,4.8l-1.7,1.7
			c-0.4,0.4-0.4,0.9,0,1.3l3.5,3.5c0.2,0.2,0.4,0.3,0.7,0.3c0.2,0,0.5-0.1,0.7-0.3l1.7-1.7c1.5,0.9,3.1,1.6,4.8,2v2.4
			c0,0.5,0.4,0.9,0.9,0.9h5c0.5,0,0.9-0.4,0.9-0.9v-2.4c1.7-0.4,3.3-1.1,4.8-2l1.7,1.7c0.2,0.2,0.4,0.3,0.7,0.3
			c0.2,0,0.5-0.1,0.7-0.3l3.5-3.5c0.4-0.4,0.4-0.9,0-1.3L33,29.9c0.9-1.5,1.6-3.1,2-4.8h2.4c0.5,0,0.9-0.4,0.9-0.9v-5
			C38.3,18.7,37.9,18.3,37.4,18.3L37.4,18.3z M36.4,23.2h-2.2c-0.5,0-0.8,0.3-0.9,0.8c-0.3,2-1.1,3.8-2.3,5.5
			c-0.3,0.4-0.2,0.9,0.1,1.2l1.5,1.5l-2.2,2.2L29,32.9c-0.3-0.3-0.8-0.4-1.2-0.1c-1.6,1.2-3.5,1.9-5.5,2.3c-0.4,0.1-0.8,0.5-0.8,0.9
			v2.2h-3.1v-2.2c0-0.5-0.3-0.8-0.8-0.9c-2-0.3-3.8-1.1-5.5-2.3c-0.4-0.3-0.9-0.2-1.2,0.1l-1.5,1.5l-2.2-2.2l1.5-1.5
			c0.3-0.3,0.4-0.8,0.1-1.2C7.8,27.8,7,26,6.7,24c-0.1-0.4-0.5-0.8-0.9-0.8H3.6v-3.1h2.2c0.5,0,0.8-0.3,0.9-0.8
			c0.3-2,1.1-3.8,2.3-5.5c0.3-0.4,0.2-0.9-0.1-1.2l-1.5-1.5L9.5,9l1.5,1.5c0.3,0.3,0.8,0.4,1.2,0.1c1.6-1.2,3.5-1.9,5.5-2.3
			c0.4-0.1,0.8-0.5,0.8-0.9V5.2h3.1v2.2c0,0.5,0.3,0.8,0.8,0.9c2,0.3,3.8,1.1,5.5,2.3c0.4,0.3,0.9,0.2,1.2-0.1L30.5,9l2.2,2.2
			l-1.5,1.5c-0.3,0.3-0.4,0.8-0.1,1.2c1.2,1.6,1.9,3.5,2.3,5.5c0.1,0.4,0.5,0.8,0.9,0.8h2.2V23.2z M36.4,23.2"/>
	</g>
	<path class="st1" d="M20,15.3c-3.5,0-6.4,2.9-6.4,6.4c0,3.5,2.9,6.4,6.4,6.4h0c3.5,0,6.4-2.9,6.4-6.4c0-1.7-0.7-3.3-1.9-4.5
		C23.3,16,21.7,15.3,20,15.3L20,15.3z M20,26.2c-2.5,0-4.5-2-4.5-4.5c0-2.5,2-4.5,4.5-4.5c1.2,0,2.3,0.5,3.2,1.3
		c0.9,0.8,1.3,2,1.3,3.2C24.5,24.2,22.5,26.2,20,26.2L20,26.2z M20,26.2"/>
	<path class="st1" d="M14.7,13.5c0.2,0,0.3,0,0.5-0.1c0,0,0.1,0,0.1-0.1c0.4-0.3,0.6-0.8,0.4-1.3c-0.3-0.4-0.8-0.6-1.3-0.4
		c0,0-0.1,0-0.1,0.1c-0.4,0.3-0.6,0.8-0.3,1.3C14.1,13.3,14.4,13.5,14.7,13.5L14.7,13.5z M14.7,13.5"/>
	<path class="st1" d="M27.4,15.6c0.2,0.2,0.4,0.3,0.7,0.3c0.2,0,0.4-0.1,0.6-0.2c0.4-0.3,0.5-0.9,0.1-1.3c0,0-0.1-0.1-0.1-0.1
		c-0.3-0.4-0.9-0.4-1.3-0.1C27.1,14.5,27,15.1,27.4,15.6C27.4,15.5,27.4,15.6,27.4,15.6L27.4,15.6z M27.4,15.6"/>
	<path class="st1" d="M9.8,19C9.9,19,10,19,10.1,19c0.4,0,0.7-0.2,0.9-0.6c0,0,0-0.1,0-0.1c0.2-0.5-0.1-1-0.5-1.2
		c-0.5-0.2-1,0.1-1.2,0.5c0,0,0,0.1,0,0.1C9.1,18.3,9.3,18.8,9.8,19L9.8,19z M9.8,19"/>
	<path class="st1" d="M10.4,21.7L10.4,21.7c0-0.1,0-0.1,0-0.1c0-0.5-0.4-0.9-0.9-0.9c0,0,0,0,0,0c-0.5,0-0.9,0.4-0.9,0.9
		c0,0,0,0.1,0,0.1v0c0,0.5,0.4,0.9,0.9,0.9C10,22.6,10.4,22.2,10.4,21.7L10.4,21.7z M10.4,21.7"/>
	<path class="st1" d="M18.2,12.3c0.1,0,0.1,0,0.2,0l0.1,0c0.5-0.1,0.8-0.6,0.8-1.1c-0.1-0.5-0.6-0.8-1.1-0.8l-0.1,0
		c-0.5,0.1-0.8,0.6-0.8,1.1C17.3,11.9,17.7,12.3,18.2,12.3L18.2,12.3z M18.2,12.3"/>
	<path class="st1" d="M29,18.4c0,0,0,0.1,0,0.1c0.1,0.4,0.5,0.6,0.9,0.6c0.1,0,0.2,0,0.3-0.1c0.5-0.2,0.7-0.7,0.6-1.2
		c0,0,0-0.1,0-0.1c-0.2-0.5-0.7-0.7-1.2-0.6C29.1,17.4,28.8,17.9,29,18.4L29,18.4z M29,18.4"/>
	<path class="st1" d="M24.8,13.4C24.8,13.4,24.8,13.4,24.8,13.4c0.2,0.1,0.4,0.2,0.6,0.2c0.3,0,0.6-0.2,0.8-0.5
		c0.3-0.4,0.1-1-0.3-1.3c0,0-0.1,0-0.1-0.1c-0.4-0.3-1-0.1-1.3,0.3C24.2,12.6,24.3,13.1,24.8,13.4L24.8,13.4z M24.8,13.4"/>
	<path class="st1" d="M11,25c0,0,0-0.1,0-0.1c-0.2-0.5-0.7-0.7-1.2-0.6C9.3,24.5,9,25,9.2,25.5c0,0,0,0.1,0,0.1
		c0.1,0.4,0.5,0.6,0.9,0.6c0.1,0,0.2,0,0.3-0.1C10.9,26,11.2,25.5,11,25L11,25z M11,25"/>
	<path class="st1" d="M21.7,12.2c0,0,0.1,0,0.1,0c0.1,0,0.1,0,0.2,0c0.4,0,0.8-0.3,0.9-0.8c0.1-0.5-0.2-1-0.7-1.1c0,0-0.1,0-0.1,0
		c-0.5-0.1-1,0.2-1.1,0.8C20.8,11.7,21.2,12.2,21.7,12.2L21.7,12.2z M21.7,12.2"/>
	<path class="st1" d="M21.7,31.1c0,0-0.1,0-0.1,0c-0.5,0.1-0.8,0.6-0.8,1.1c0.1,0.5,0.5,0.8,0.9,0.8c0,0,0.1,0,0.1,0
		c0,0,0.1,0,0.1,0c0.5-0.1,0.8-0.6,0.8-1.1C22.7,31.4,22.2,31,21.7,31.1L21.7,31.1z M21.7,31.1"/>
	<path class="st1" d="M30.2,24.4c-0.5-0.2-1,0.1-1.2,0.6c0,0,0,0.1,0,0.1c-0.2,0.5,0.1,1,0.5,1.2c0.1,0,0.2,0.1,0.3,0.1
		c0.4,0,0.7-0.2,0.9-0.6c0,0,0-0.1,0-0.1C30.9,25.1,30.7,24.6,30.2,24.4L30.2,24.4z M30.2,24.4"/>
	<path class="st1" d="M28.6,27.7c-0.4-0.3-1-0.3-1.3,0.1c0,0,0,0.1-0.1,0.1c-0.3,0.4-0.3,1,0.1,1.3c0.2,0.2,0.4,0.2,0.6,0.2
		c0.3,0,0.5-0.1,0.7-0.3c0,0,0.1-0.1,0.1-0.1C29.1,28.6,29,28,28.6,27.7L28.6,27.7z M28.6,27.7"/>
	<path class="st1" d="M30.5,20.7c-0.5,0-0.9,0.4-0.9,0.9l0,0.1c0,0.5,0.4,0.9,0.9,0.9h0c0.5,0,0.9-0.4,0.9-0.9l0-0.1
		C31.4,21.2,31,20.7,30.5,20.7L30.5,20.7z M30.5,20.7"/>
	<path class="st1" d="M12.6,27.8c-0.3-0.4-0.9-0.5-1.3-0.1c-0.4,0.3-0.5,0.9-0.1,1.3c0,0,0.1,0.1,0.1,0.1c0.2,0.2,0.4,0.3,0.7,0.3
		c0.2,0,0.4-0.1,0.6-0.2C12.9,28.8,13,28.2,12.6,27.8C12.6,27.8,12.6,27.8,12.6,27.8L12.6,27.8z M12.6,27.8"/>
	<path class="st1" d="M24.8,30L24.7,30c-0.4,0.3-0.6,0.8-0.3,1.3c0.2,0.3,0.5,0.5,0.8,0.5c0.2,0,0.3,0,0.5-0.1c0,0,0.1,0,0.1-0.1
		c0.4-0.3,0.6-0.8,0.3-1.3C25.8,29.9,25.2,29.7,24.8,30L24.8,30z M24.8,30"/>
	<path class="st1" d="M12.6,14.1c-0.4-0.3-1-0.3-1.3,0.1c0,0-0.1,0.1-0.1,0.1c-0.3,0.4-0.3,1,0.1,1.3c0.2,0.1,0.4,0.2,0.6,0.2
		c0.3,0,0.5-0.1,0.7-0.3c0,0,0-0.1,0.1-0.1C13.1,15,13,14.5,12.6,14.1L12.6,14.1z M12.6,14.1"/>
	<path class="st1" d="M15.2,30l-0.1-0.1c-0.4-0.3-1-0.1-1.3,0.3c-0.3,0.4-0.1,1,0.3,1.3l0.1,0.1c0.1,0.1,0.3,0.1,0.5,0.1
		c0.3,0,0.6-0.2,0.8-0.5C15.8,30.8,15.7,30.2,15.2,30L15.2,30z M15.2,30"/>
	<path class="st1" d="M18.3,31.1l-0.1,0c-0.5-0.1-1,0.2-1.1,0.7c-0.1,0.5,0.2,1,0.7,1.1l0.1,0c0.1,0,0.1,0,0.2,0
		c0.4,0,0.8-0.3,0.9-0.8C19.2,31.7,18.8,31.2,18.3,31.1L18.3,31.1z M18.3,31.1"/>
</g>
</svg>
