<?xml version="1.0" encoding="utf-8"?>
<!-- Generator: Adobe Illustrator 20.1.0, SVG Export Plug-In . SVG Version: 6.00 Build 0)  -->
<svg version="1.1" id="Camada_1" xmlns="http://www.w3.org/2000/svg" xmlns:xlink="http://www.w3.org/1999/xlink" x="0px" y="0px"
	 viewBox="0 0 40 40" style="enable-background:new 0 0 40 40;" xml:space="preserve">
<style type="text/css">
	.st0{fill:#25AAE0;}
</style>
<g transform="translate(1 1)">
	<path class="st0" d="M37.6,39H0.4c-0.4,0-0.6-0.3-0.6-0.6s0.3-0.6,0.6-0.6h37.1c0.4,0,0.6,0.3,0.6,0.6S37.9,39,37.6,39z"/>
	<path class="st0" d="M20.9,31.3c-0.4,0-0.6-0.3-0.6-0.6v-1.3c0-0.4,0.3-0.6,0.6-0.6c0.4,0,0.6,0.3,0.6,0.6v1.3
		C21.6,31.1,21.3,31.3,20.9,31.3z M20.9,27.5c-0.4,0-0.6-0.3-0.6-0.6v-1.3c0-0.4,0.3-0.6,0.6-0.6c0.4,0,0.6,0.3,0.6,0.6v1.3
		C21.6,27.2,21.3,27.5,20.9,27.5z M20.9,23.6c-0.4,0-0.6-0.3-0.6-0.6v-1.3c0-0.4,0.3-0.6,0.6-0.6c0.4,0,0.6,0.3,0.6,0.6V23
		C21.6,23.4,21.3,23.6,20.9,23.6z M20.9,19.8c-0.4,0-0.6-0.3-0.6-0.6v-1.3c0-0.4,0.3-0.6,0.6-0.6c0.4,0,0.6,0.3,0.6,0.6v1.3
		C21.6,19.5,21.3,19.8,20.9,19.8z M20.9,16c-0.4,0-0.6-0.3-0.6-0.6V14c0-0.4,0.3-0.6,0.6-0.6c0.4,0,0.6,0.3,0.6,0.6v1.3
		C21.6,15.7,21.3,16,20.9,16z"/>
	<path class="st0" d="M24.8,33.9c-0.4,0-0.6-0.3-0.6-0.6v-0.1c0-0.4,0.3-0.6,0.6-0.6s0.6,0.3,0.6,0.6v0.1
		C25.4,33.7,25.1,33.9,24.8,33.9z M24.8,31.3c-0.4,0-0.6-0.3-0.6-0.6v-1.3c0-0.4,0.3-0.6,0.6-0.6s0.6,0.3,0.6,0.6v1.3
		C25.4,31.1,25.1,31.3,24.8,31.3z M24.8,27.5c-0.4,0-0.6-0.3-0.6-0.6v-1.3c0-0.4,0.3-0.6,0.6-0.6s0.6,0.3,0.6,0.6v1.3
		C25.4,27.2,25.1,27.5,24.8,27.5z M24.8,23.6c-0.4,0-0.6-0.3-0.6-0.6v-1.3c0-0.4,0.3-0.6,0.6-0.6s0.6,0.3,0.6,0.6V23
		C25.4,23.4,25.1,23.6,24.8,23.6z M24.8,19.8c-0.4,0-0.6-0.3-0.6-0.6v-1.3c0-0.4,0.3-0.6,0.6-0.6s0.6,0.3,0.6,0.6v1.3
		C25.4,19.5,25.1,19.8,24.8,19.8z M24.8,16c-0.4,0-0.6-0.3-0.6-0.6V14c0-0.4,0.3-0.6,0.6-0.6s0.6,0.3,0.6,0.6v1.3
		C25.4,15.7,25.1,16,24.8,16z"/>
	<path class="st0" d="M28.6,34.4c-0.4,0-0.6-0.3-0.6-0.6v-0.5c0-0.4,0.3-0.6,0.6-0.6s0.6,0.3,0.6,0.6v0.5
		C29.2,34.1,29,34.4,28.6,34.4z M28.6,31.3c-0.4,0-0.6-0.3-0.6-0.6v-1.3c0-0.4,0.3-0.6,0.6-0.6s0.6,0.3,0.6,0.6v1.3
		C29.2,31.1,29,31.3,28.6,31.3z M28.6,27.5c-0.4,0-0.6-0.3-0.6-0.6v-1.3c0-0.4,0.3-0.6,0.6-0.6s0.6,0.3,0.6,0.6v1.3
		C29.2,27.2,29,27.5,28.6,27.5z M28.6,23.6c-0.4,0-0.6-0.3-0.6-0.6v-1.3c0-0.4,0.3-0.6,0.6-0.6s0.6,0.3,0.6,0.6V23
		C29.2,23.4,29,23.6,28.6,23.6z M28.6,19.8c-0.4,0-0.6-0.3-0.6-0.6v-1.3c0-0.4,0.3-0.6,0.6-0.6s0.6,0.3,0.6,0.6v1.3
		C29.2,19.5,29,19.8,28.6,19.8z M28.6,16c-0.4,0-0.6-0.3-0.6-0.6V14c0-0.4,0.3-0.6,0.6-0.6s0.6,0.3,0.6,0.6v1.3
		C29.2,15.7,29,16,28.6,16z"/>
	<path class="st0" d="M6.8,36.4c-0.4,0-0.6-0.3-0.6-0.6v-1.3c0-0.4,0.3-0.6,0.6-0.6s0.6,0.3,0.6,0.6v1.3C7.5,36.2,7.2,36.4,6.8,36.4
		z M6.8,32.6c-0.4,0-0.6-0.3-0.6-0.6v-1.3c0-0.4,0.3-0.6,0.6-0.6s0.6,0.3,0.6,0.6V32C7.5,32.3,7.2,32.6,6.8,32.6z M6.8,28.8
		c-0.4,0-0.6-0.3-0.6-0.6v-1.3c0-0.4,0.3-0.6,0.6-0.6s0.6,0.3,0.6,0.6v1.3C7.5,28.5,7.2,28.8,6.8,28.8z M6.8,24.9
		c-0.4,0-0.6-0.3-0.6-0.6V23c0-0.4,0.3-0.6,0.6-0.6s0.6,0.3,0.6,0.6v1.3C7.5,24.7,7.2,24.9,6.8,24.9z M6.8,21.1
		c-0.4,0-0.6-0.3-0.6-0.6v-1.3c0-0.4,0.3-0.6,0.6-0.6s0.6,0.3,0.6,0.6v1.3C7.5,20.8,7.2,21.1,6.8,21.1z M6.8,17.2
		c-0.4,0-0.6-0.3-0.6-0.6v-1.3c0-0.4,0.3-0.6,0.6-0.6s0.6,0.3,0.6,0.6v1.3C7.5,17,7.2,17.2,6.8,17.2z M6.8,13.4
		c-0.4,0-0.6-0.3-0.6-0.6v-1.3c0-0.4,0.3-0.6,0.6-0.6s0.6,0.3,0.6,0.6v1.3C7.5,13.1,7.2,13.4,6.8,13.4z M6.8,9.6
		c-0.4,0-0.6-0.3-0.6-0.6V7.6C6.2,7.3,6.5,7,6.8,7s0.6,0.3,0.6,0.6v1.3C7.5,9.3,7.2,9.6,6.8,9.6z M6.8,5.7c-0.4,0-0.6-0.3-0.6-0.6
		V3.8c0-0.4,0.3-0.6,0.6-0.6s0.6,0.3,0.6,0.6v1.3C7.5,5.5,7.2,5.7,6.8,5.7z"/>
	<path class="st0" d="M10.7,32.6c-0.4,0-0.6-0.3-0.6-0.6v-1.3c0-0.4,0.3-0.6,0.6-0.6c0.4,0,0.6,0.3,0.6,0.6V32
		C11.3,32.3,11.1,32.6,10.7,32.6z M10.7,28.8c-0.4,0-0.6-0.3-0.6-0.6v-1.3c0-0.4,0.3-0.6,0.6-0.6c0.4,0,0.6,0.3,0.6,0.6v1.3
		C11.3,28.5,11.1,28.8,10.7,28.8z M10.7,24.9c-0.4,0-0.6-0.3-0.6-0.6V23c0-0.4,0.3-0.6,0.6-0.6c0.4,0,0.6,0.3,0.6,0.6v1.3
		C11.3,24.7,11.1,24.9,10.7,24.9z M10.7,21.1c-0.4,0-0.6-0.3-0.6-0.6v-1.3c0-0.4,0.3-0.6,0.6-0.6c0.4,0,0.6,0.3,0.6,0.6v1.3
		C11.3,20.8,11.1,21.1,10.7,21.1z M10.7,17.2c-0.4,0-0.6-0.3-0.6-0.6v-1.3c0-0.4,0.3-0.6,0.6-0.6c0.4,0,0.6,0.3,0.6,0.6v1.3
		C11.3,17,11.1,17.2,10.7,17.2z M10.7,13.4c-0.4,0-0.6-0.3-0.6-0.6v-1.3c0-0.4,0.3-0.6,0.6-0.6c0.4,0,0.6,0.3,0.6,0.6v1.3
		C11.3,13.1,11.1,13.4,10.7,13.4z M10.7,9.6c-0.4,0-0.6-0.3-0.6-0.6V7.6C10,7.3,10.3,7,10.7,7c0.4,0,0.6,0.3,0.6,0.6v1.3
		C11.3,9.3,11.1,9.6,10.7,9.6z M10.7,5.7c-0.4,0-0.6-0.3-0.6-0.6V3.8c0-0.4,0.3-0.6,0.6-0.6c0.4,0,0.6,0.3,0.6,0.6v1.3
		C11.3,5.5,11.1,5.7,10.7,5.7z"/>
	<path class="st0" d="M14.5,28.8c-0.4,0-0.6-0.3-0.6-0.6v-1.3c0-0.4,0.3-0.6,0.6-0.6c0.4,0,0.6,0.3,0.6,0.6v1.3
		C15.2,28.5,14.9,28.8,14.5,28.8z M14.5,24.9c-0.4,0-0.6-0.3-0.6-0.6V23c0-0.4,0.3-0.6,0.6-0.6c0.4,0,0.6,0.3,0.6,0.6v1.3
		C15.2,24.7,14.9,24.9,14.5,24.9z M14.5,21.1c-0.4,0-0.6-0.3-0.6-0.6v-1.3c0-0.4,0.3-0.6,0.6-0.6c0.4,0,0.6,0.3,0.6,0.6v1.3
		C15.2,20.8,14.9,21.1,14.5,21.1z M14.5,17.2c-0.4,0-0.6-0.3-0.6-0.6v-1.3c0-0.4,0.3-0.6,0.6-0.6c0.4,0,0.6,0.3,0.6,0.6v1.3
		C15.2,17,14.9,17.2,14.5,17.2z M14.5,13.4c-0.4,0-0.6-0.3-0.6-0.6v-1.3c0-0.4,0.3-0.6,0.6-0.6c0.4,0,0.6,0.3,0.6,0.6v1.3
		C15.2,13.1,14.9,13.4,14.5,13.4z M14.5,9.6c-0.4,0-0.6-0.3-0.6-0.6V7.6c0-0.4,0.3-0.6,0.6-0.6c0.4,0,0.6,0.3,0.6,0.6v1.3
		C15.2,9.3,14.9,9.6,14.5,9.6z M14.5,5.7c-0.4,0-0.6-0.3-0.6-0.6V3.8c0-0.4,0.3-0.6,0.6-0.6c0.4,0,0.6,0.3,0.6,0.6v1.3
		C15.2,5.5,14.9,5.7,14.5,5.7z"/>
	<path class="st0" d="M18.4,9.6c-0.4,0-0.6-0.3-0.6-0.6V7.6C17.7,7.3,18,7,18.4,7C18.7,7,19,7.3,19,7.6v1.3
		C19,9.3,18.7,9.6,18.4,9.6z M18.4,5.7c-0.4,0-0.6-0.3-0.6-0.6V3.8c0-0.4,0.3-0.6,0.6-0.6c0.4,0,0.6,0.3,0.6,0.6v1.3
		C19,5.5,18.7,5.7,18.4,5.7z"/>
	<path class="st0" d="M34.2,39H21.6c-0.2,0-0.4-0.1-0.5-0.3c-0.5-0.7-0.8-1.5-0.8-2.3c0-2.1,1.7-3.8,3.8-3.8c1.2,0,2.3,0.6,3.1,1.5
		c0.8-1,2-1.5,3.3-1.5c2.5,0,4.5,2,4.5,4.5c0,0.5-0.1,1-0.3,1.5C34.7,38.8,34.4,39,34.2,39z M21.9,37.7h11.7
		c0.1-0.2,0.1-0.4,0.1-0.6c0-1.8-1.4-3.2-3.2-3.2c-1.2,0-2.3,0.6-2.8,1.7c-0.1,0.3-0.3,0.4-0.6,0.3c-0.3,0-0.4-0.2-0.6-0.4
		c-0.4-1-1.4-1.7-2.4-1.7c-1.4,0-2.6,1.2-2.6,2.6C21.6,36.9,21.7,37.3,21.9,37.7z"/>
	<path class="st0" d="M21.6,39H6.2c-0.4,0-0.6-0.3-0.6-0.6c0-2.2,1.7-4.2,3.9-4.4c0.3-2.2,2.2-3.9,4.4-3.9c1.8,0,3.4,1.1,4.1,2.7
		c0.6-0.5,1.5-0.8,2.3-0.8c1.1,0,2,0.4,2.8,1.2c0.1,0.1,0.2,0.3,0.2,0.5c0,0.2-0.1,0.4-0.3,0.4c-0.8,0.4-1.3,1.3-1.3,2.2
		c0,0.5,0.2,1.1,0.5,1.5c0.1,0.2,0.2,0.4,0.1,0.7C22.1,38.9,21.8,39,21.6,39z M6.9,37.7h13.6c-0.1-0.4-0.3-0.8-0.3-1.3
		c0-1.1,0.4-2.1,1.3-2.9c-0.4-0.3-0.8-0.3-1.3-0.3c-0.8,0-1.6,0.4-2.1,1.1c-0.1,0.2-0.4,0.3-0.6,0.3c-0.3-0.1-0.4-0.3-0.5-0.5
		c-0.2-1.6-1.5-2.8-3.1-2.8c-1.8,0-3.2,1.4-3.2,3.2c0,0.4-0.3,0.6-0.6,0.6C8.5,35.2,7.2,36.2,6.9,37.7z"/>
	<path class="st0" d="M27.1,36C27.1,36,27.1,36,27.1,36c-0.3,0-0.5-0.2-0.6-0.4c-0.5-1.4-2.2-2.1-3.6-1.3c-0.3,0.1-0.6,0.1-0.8-0.1
		c-0.5-0.6-1.2-0.9-1.9-0.9c-0.8,0-1.5,0.4-2,1c-0.2,0.2-0.4,0.3-0.7,0.3c-0.3-0.1-0.4-0.3-0.4-0.6V11.5c0-0.4,0.3-0.6,0.6-0.6h14.1
		c0.4,0,0.6,0.3,0.6,0.6v22c0,0.2-0.1,0.4-0.3,0.5c-0.2,0.1-0.4,0.1-0.6,0.1c-1.5-0.5-3.2,0.1-3.9,1.5C27.6,35.8,27.3,36,27.1,36z
		 M24.1,32.6c1.2,0,2.3,0.6,3.1,1.5c1-1.1,2.5-1.7,4-1.5V12.1H18.4v20.4c0.6-0.3,1.2-0.5,1.9-0.5c0.9,0,1.8,0.3,2.5,0.9
		C23.2,32.7,23.7,32.6,24.1,32.6z"/>
	<path class="st0" d="M6.2,39H4.3c-0.4,0-0.6-0.3-0.6-0.6V1.2c0-0.4,0.3-0.6,0.6-0.6h17.3c0.4,0,0.6,0.3,0.6,0.6v10.2
		c0,0.4-0.3,0.6-0.6,0.6h-3.2v21.8c0,0.1-0.1,0.3-0.1,0.4l-0.1,0.1c-0.1,0.2-0.4,0.3-0.6,0.3c-0.3-0.1-0.4-0.3-0.4-0.5
		c-0.3-1.6-1.6-2.8-3.2-2.8c-1.8,0-3.2,1.4-3.2,3.2c0,0.4-0.3,0.6-0.6,0.6c-1.8,0-3.2,1.4-3.2,3.2C6.8,38.7,6.6,39,6.2,39z
		 M4.9,37.7h0.7c0.3-2,1.9-3.5,3.8-3.8c0.3-2.2,2.2-3.9,4.4-3.9c1.2,0,2.4,0.5,3.2,1.3V11.5c0-0.4,0.3-0.6,0.6-0.6h3.2v-9h-16V37.7z
		"/>
</g>
</svg>
