<?xml version="1.0" encoding="utf-8"?>
<!-- Generator: Adobe Illustrator 20.1.0, SVG Export Plug-In . SVG Version: 6.00 Build 0)  -->
<svg version="1.1" id="criação" xmlns="http://www.w3.org/2000/svg" xmlns:xlink="http://www.w3.org/1999/xlink" x="0px" y="0px"
	 viewBox="0 0 85 85" style="enable-background:new 0 0 85 85;" xml:space="preserve">
<style type="text/css">
	.st0{fill:#FFFFFF;}
</style>
<g>
	<path class="st0" d="M77.6,2.6l-7.5,5.6l-7.5,17.5h-6l-2.4-5.1h1.6c2.8,0,5.1-2.3,5.1-5.1v-5.2h2.6V2.6h-7.7v7.7h2.6v5.2
		c0,1.4-1.2,2.5-2.6,2.5H53l-3.3-7.1l3.9-2L40.7,3.4l-3,10.6C37.6,7.7,32.4,2.6,26.1,2.6c-6.4,0-11.6,5.2-11.6,11.6
		c0,3.9,2,7.5,5.1,9.6v1.9h-3.1l-0.2,1.1c-0.6,3.2-0.7,6.6-0.2,9.9L7.4,52.4l9.7,2.2v16.2H30v11.6h30.9V64.5
		c9-6.4,14.2-16.6,14.1-27.5l0-4.7c0-1.8-0.2-3.6-0.5-5.4l-0.2-1.1h-2.5l5.8-13.9V2.6z M58.3,7.8V5.2h2.6v2.6H58.3z M53.7,25.8h-4.9
		l-2.3-5.1h4.8L53.7,25.8z M42.4,7l5.1,2.2l-1.2,0.6l3.8,8.3h-4.8l-3.1-6.9L41,11.7L42.4,7z M46,25.8h-5.7v-2.5
		c0-1.4,1.2-2.6,2.6-2.6h0.8v0L46,25.8z M40.9,14.7l1.6,3.4c-2.7,0.2-4.8,2.4-4.8,5.1v2.5h-5.1v-1.9c2.6-1.7,4.3-4.4,4.9-7.4
		L40.9,14.7z M17.1,14.2c0-5,4-9,9-9c5,0,9,4,9,9c0,3.2-1.7,6.2-4.5,7.8L30,22.4v3.4h-2.6v-7.9c1.5-0.5,2.6-1.9,2.6-3.6
		c0-2.1-1.7-3.9-3.9-3.9c-2.1,0-3.9,1.7-3.9,3.9c0,1.7,1.1,3.1,2.6,3.6v7.9h-2.6v-3.4L21.6,22C18.8,20.4,17.1,17.4,17.1,14.2
		L17.1,14.2z M26.1,15.5c-0.7,0-1.3-0.6-1.3-1.3c0-0.7,0.6-1.3,1.3-1.3c0.7,0,1.3,0.6,1.3,1.3C27.4,14.9,26.8,15.5,26.1,15.5
		L26.1,15.5z M72.2,28.3c0.2,1.3,0.3,2.6,0.3,3.9l0,4.7c0,10.3-5.1,20-13.6,25.8l-0.6,0.4v16.7H32.5V68.2H19.7V52.5l-8.3-1.9
		l7.5-13.4l-0.1-0.5c-0.5-2.8-0.5-5.8-0.1-8.4H72.2z M69,25.8h-3.6l6.4-15l2.9,1.4L69,25.8z M75,9.6l-1.4-0.7L75,7.8V9.6z M75,9.6"
		/>
	<path class="st0" d="M28.7,36.1c-2.1,0-3.9-1.3-3.9-3.9h-2.6c0,3.9,2.9,6.4,6.4,6.4c3.5,0,6.4-2.6,6.4-6.4h-2.6
		C32.5,34.8,30.8,36.1,28.7,36.1L28.7,36.1z M28.7,36.1"/>
</g>
</svg>
