<?xml version="1.0" encoding="utf-8"?>
<!-- Generator: Adobe Illustrator 20.1.0, SVG Export Plug-In . SVG Version: 6.00 Build 0)  -->
<svg version="1.1" id="Camada_1" xmlns="http://www.w3.org/2000/svg" xmlns:xlink="http://www.w3.org/1999/xlink" x="0px" y="0px"
	 viewBox="0 0 40 40" style="enable-background:new 0 0 40 40;" xml:space="preserve">
<style type="text/css">
	.st0{clip-path:url(#SVGID_2_);fill:#25AAE0;}
</style>
<g>
	<g>
		<defs>
			<rect id="SVGID_1_" x="1.5" y="9.3" width="37.1" height="24.3"/>
		</defs>
		<clipPath id="SVGID_2_">
			<use xlink:href="#SVGID_1_"  style="overflow:visible;"/>
		</clipPath>
		<path class="st0" d="M26.4,14l-9.4-3.2c-0.9-0.3-1.9-0.2-2.7,0.2l-0.5,0.2c-0.6,0.3-1.4,0.4-2.1,0.1L11,11c0,0-0.1,0-0.1-0.1
			L6.1,9.3c-0.1,0-0.2,0-0.3,0C5.6,9.4,5.5,9.5,5.5,9.6l-4,11.8c-0.1,0.2,0,0.5,0.3,0.6l4.8,1.6c0.1,0,0.1,0,0.2,0
			c0.1,0,0.1,0,0.2,0c0.1-0.1,0.2-0.1,0.2-0.3L11,12l0.5,0.2c0.9,0.3,1.9,0.3,2.8-0.2l0.5-0.2c0.6-0.3,1.4-0.4,2-0.1l9,3.1
			c-0.1,0.4-0.3,1-0.8,1.4c-0.4,0.3-1.1,0.3-1.9,0l-3.9-1.3c-0.1,0-0.3,0-0.4,0c-0.1,0.1-0.2,0.2-0.2,0.3c0,0-0.6,2.2-2.4,3.2
			C15.1,19,13.6,19,12,18.4c-0.2-0.1-0.5,0-0.6,0.3c-0.1,0.2,0,0.5,0.3,0.6c0.9,0.3,1.7,0.5,2.5,0.5c0.9,0,1.7-0.2,2.5-0.6
			c1.6-0.9,2.4-2.5,2.7-3.3l3.5,1.2c1.1,0.4,2,0.3,2.7-0.2c1.1-0.8,1.2-2.4,1.2-2.4C26.7,14.3,26.6,14.1,26.4,14L26.4,14z M6.4,22.6
			l-3.9-1.4l3.7-10.9l3.8,1.3l0.1,0l0,0L6.4,22.6z M6.4,22.6"/>
		<path class="st0" d="M38.5,20.8L33,9.6c-0.1-0.1-0.1-0.2-0.3-0.2c-0.1,0-0.2,0-0.3,0l-4.6,2.2c-0.2,0.1-0.3,0.4-0.2,0.6l5.3,10.9
			l-1.8,1.6c-1.5,1.4-3.2,2.6-5.1,3.5l-8.7,4.3c-0.2,0.1-0.5,0.1-0.8,0c-0.3-0.1-0.5-0.3-0.6-0.5c-0.1-0.2-0.1-0.5,0-0.8
			c0.1-0.3,0.3-0.5,0.5-0.6l4.9-2.4c0.2-0.1,0.3-0.4,0.2-0.6c-0.1-0.2-0.4-0.3-0.6-0.2l-4.8,2.3L13.8,31c-0.5,0.2-1.1,0-1.4-0.5
			c-0.2-0.5,0-1.1,0.5-1.4l7-3.4c0.2-0.1,0.3-0.4,0.2-0.6c-0.1-0.2-0.4-0.3-0.6-0.2l-5.2,2.5l-1.8,0.9l-0.9,0.4
			c-0.5,0.2-1.1,0-1.4-0.5c-0.2-0.5,0-1.1,0.5-1.4l0.9-0.4l6.3-3.1c0.2-0.1,0.3-0.4,0.2-0.6c-0.1-0.2-0.4-0.3-0.6-0.2l-4,2l-2.2,1.1
			c-0.2,0.1-0.5,0.1-0.8,0c-0.3-0.1-0.5-0.3-0.6-0.5c-0.1-0.2-0.1-0.5,0-0.8c0.1-0.3,0.3-0.5,0.5-0.6l3.3-1.6
			c0.2-0.1,0.3-0.4,0.2-0.6c-0.1-0.2-0.4-0.3-0.6-0.2L9.9,23c-0.5,0.2-0.8,0.6-1,1.1c-0.2,0.5-0.1,1,0.1,1.5
			c0.2,0.4,0.5,0.7,0.8,0.8c-0.6,0.6-0.8,1.5-0.4,2.2c0.3,0.7,1,1.1,1.7,1.1c0.1,0,0.2,0,0.3,0c-0.1,0.4,0,0.8,0.2,1.2
			c0.3,0.7,1,1.1,1.7,1.1c0.3,0,0.6-0.1,0.8-0.2l0.8-0.4c0,0.4,0,0.7,0.2,1c0.2,0.5,0.6,0.8,1.1,1c0.2,0.1,0.4,0.1,0.6,0.1
			c0.3,0,0.6-0.1,0.8-0.2l8.7-4.3c1.9-0.9,3.7-2.2,5.3-3.6l2-1.8l4.5-2.2C38.5,21.3,38.6,21,38.5,20.8L38.5,20.8z M33.7,22.6
			l-5.1-10.3l3.8-1.8l5.1,10.3L33.7,22.6z M33.7,22.6"/>
	</g>
</g>
</svg>
