<?xml version="1.0" encoding="utf-8"?>
<!-- Generator: Adobe Illustrator 20.1.0, SVG Export Plug-In . SVG Version: 6.00 Build 0)  -->
<svg version="1.1" id="compra" xmlns="http://www.w3.org/2000/svg" xmlns:xlink="http://www.w3.org/1999/xlink" x="0px" y="0px"
	 viewBox="0 0 85 85" style="enable-background:new 0 0 85 85;" xml:space="preserve">
<style type="text/css">
	.st0{fill:#FFFFFF;}
</style>
<g>
	<path class="st0" d="M82.2,22.6h-5.3V6.7c0-2.2-1.8-4-4-4h-5.3c-2.2,0-4,1.8-4,4v15.9H2.8v43.7h60.9v3l5.3,9.3v2.3
		c0,0.7,0.6,1.3,1.3,1.3c0.7,0,1.3-0.6,1.3-1.3v-2.3l5.3-9.3v-3h5.3V22.6z M74.3,17.3h-8v-2.7h8V17.3z M66.3,6.7
		c0-0.7,0.6-1.3,1.3-1.3H73c0.7,0,1.3,0.6,1.3,1.3V12h-8V6.7z M5.4,63.7V25.3h58.3v38.4H5.4z M70.3,75.6l-3-5.3h6L70.3,75.6z
		 M74.3,67.7h-8V20h8V67.7z M79.6,63.7h-2.6V25.3h2.6V63.7z M79.6,63.7"/>
	<path class="st0" d="M54.4,37.2h-4c-0.7,0-1.3,0.6-1.3,1.3c0,0.7,0.6,1.3,1.3,1.3h4c0.7,0,1.3-0.6,1.3-1.3
		C55.7,37.8,55.2,37.2,54.4,37.2L54.4,37.2z M54.4,37.2"/>
	<path class="st0" d="M30.6,34.5h4c0.7,0,1.3-0.6,1.3-1.3c0-0.7-0.6-1.3-1.3-1.3h-4c-0.7,0-1.3,0.6-1.3,1.3
		C29.3,34,29.8,34.5,30.6,34.5L30.6,34.5z M30.6,34.5"/>
	<path class="st0" d="M54.4,31.9h-9.3c-0.7,0-1.3,0.6-1.3,1.3c0,0.7,0.6,1.3,1.3,1.3h9.3c0.7,0,1.3-0.6,1.3-1.3
		C55.7,32.5,55.2,31.9,54.4,31.9L54.4,31.9z M54.4,31.9"/>
	<path class="st0" d="M39.8,34.5c0.3,0,0.7-0.1,0.9-0.4c0.2-0.3,0.4-0.6,0.4-0.9c0-0.3-0.1-0.7-0.4-0.9c-0.5-0.5-1.4-0.5-1.9,0
		c-0.2,0.3-0.4,0.6-0.4,0.9c0,0.3,0.1,0.7,0.4,0.9C39.2,34.4,39.5,34.5,39.8,34.5L39.8,34.5z M39.8,34.5"/>
	<path class="st0" d="M34.5,38.5c0,0.7,0.6,1.3,1.3,1.3h9.3c0.7,0,1.3-0.6,1.3-1.3c0-0.7-0.6-1.3-1.3-1.3h-9.3
		C35.1,37.2,34.5,37.8,34.5,38.5L34.5,38.5z M34.5,38.5"/>
	<path class="st0" d="M30.6,39.8c0.3,0,0.7-0.1,0.9-0.4c0.2-0.3,0.4-0.6,0.4-0.9c0-0.4-0.1-0.7-0.4-0.9c-0.5-0.5-1.4-0.5-1.9,0
		c-0.2,0.3-0.4,0.6-0.4,0.9c0,0.3,0.1,0.7,0.4,0.9C29.9,39.7,30.2,39.8,30.6,39.8L30.6,39.8z M30.6,39.8"/>
	<path class="st0" d="M17.3,33.4v-1.5c0-0.7-0.6-1.3-1.3-1.3c-0.7,0-1.3,0.6-1.3,1.3v1.5c-1.4,0.3-2.8,1.1-3.7,2.2
		c-0.8,1-1.2,2.2-1.1,3.4c0.1,1.3,0.8,2.5,1.8,3.3l2.9,2.3v7.2c-1.5-0.5-2.6-2-2.6-3.7c0-0.7-0.6-1.3-1.3-1.3
		c-0.7,0-1.3,0.6-1.3,1.3c0,3.2,2.3,5.9,5.3,6.5v1.2c0,0.7,0.6,1.3,1.3,1.3c0.7,0,1.3-0.6,1.3-1.3v-1.2c1.4-0.3,2.8-1.1,3.7-2.2
		c0.8-1,1.2-2.2,1.1-3.5c-0.1-1.3-0.8-2.5-1.8-3.3l-2.9-2.3v-7.2c1.5,0.5,2.6,2,2.6,3.7c0,0.7,0.6,1.3,1.3,1.3
		c0.7,0,1.3-0.6,1.3-1.3C22.6,36.7,20.3,34,17.3,33.4L17.3,33.4z M18.7,47.7c0.5,0.4,0.8,0.9,0.8,1.5c0.1,0.5-0.1,1.1-0.4,1.5
		c-0.5,0.5-1.1,0.9-1.7,1.2v-5.1L18.7,47.7z M13.3,40.2c-0.5-0.4-0.8-0.9-0.8-1.5c-0.1-0.5,0.1-1.1,0.4-1.5c0.5-0.5,1.1-0.9,1.7-1.2
		v5.1L13.3,40.2z M13.3,40.2"/>
	<path class="st0" d="M34.7,47c-2.9,1.5-3.9,4.4-4.2,7.4c-0.5-0.5-1.1-0.9-1.6-1.4c-1.3-1.1-3.2,0.8-1.9,1.9c1.2,1,2.5,2.1,3.7,3.1
		c0.9,0.7,2.2,0.3,2.3-0.9c0.1-2.9,0.2-6.3,3.1-7.8C37.6,48.5,36.3,46.2,34.7,47L34.7,47z M34.7,47"/>
	<path class="st0" d="M43.6,52.3c-1.8,0.4-3.9,2.8-5.2,0.1c-0.8-1.5-3-0.2-2.3,1.3c0.7,1.4,2,2.4,3.5,2.6c0.8,0.1,1.5,0,2.2-0.3
		c0.5-0.2,2.6-1.7,3-1c0.8,1.5,3.1,0.2,2.3-1.3C46.4,52.5,45,52,43.6,52.3L43.6,52.3z M43.6,52.3"/>
</g>
</svg>
