<?xml version="1.0" encoding="utf-8"?>
<!-- Generator: Adobe Illustrator 20.1.0, SVG Export Plug-In . SVG Version: 6.00 Build 0)  -->
<svg version="1.1" id="Camada_1" xmlns="http://www.w3.org/2000/svg" xmlns:xlink="http://www.w3.org/1999/xlink" x="0px" y="0px"
	 viewBox="0 0 40 40" style="enable-background:new 0 0 40 40;" xml:space="preserve">
<style type="text/css">
	.st0{fill:#25AAE0;}
</style>
<g>
	<path class="st0" d="M16.6,35.1C16.6,35.1,16.6,35.1,16.6,35.1l-2.3-0.6c-0.2-0.1-0.3-0.2-0.4-0.2l0-1.2c0,0,0,0,0,0
		c0.8-0.9,1.2-2.1,1.2-3.4v-0.9c0.8-2.5,0.2-4.7-0.1-5.3c0,0,0,0,0,0c0,0,0,0,0,0c0,0,0,0,0,0c0,0,0,0,0,0c0,0,0,0,0,0c0,0,0,0,0,0
		c0,0,0,0,0,0c0,0,0,0,0,0c0,0,0,0,0,0c0,0,0,0,0,0c0,0,0,0,0,0c0,0,0,0,0,0c0,0,0,0,0,0c0,0,0,0,0,0c0,0,0,0,0,0c0,0,0,0,0,0
		c0,0,0,0,0,0c0,0,0,0,0,0c0,0,0,0,0,0c0,0,0,0,0,0c0,0,0,0,0,0c0,0,0,0,0,0c0,0,0,0,0,0c0,0,0,0,0,0c0,0,0,0,0,0c0,0,0,0,0,0
		c0,0,0,0,0,0c0,0,0,0,0,0c-0.6,0.1-1.3-0.1-2-0.3c-1.3-0.3-2.8-0.7-4.1,0.3c-1.3,0.1-2.2,1.2-2.2,2.6c0,1,0.5,2.9,0.6,3.3v0.5
		c0,1.3,0.4,2.5,1.2,3.4l0,1.3c0,0.1-0.2,0.1-0.4,0.2l-2.2,0.6c0,0,0,0,0,0c-1.4,0.4-2.2,1.8-2.2,3v0.6c0,0.7,0.6,1.3,1.4,1.3l6.4,0
		c0,0,0,0,0,0c0,0,0,0,0,0l6.4,0c0.8,0,1.4-0.6,1.4-1.3v-0.7C18.8,36.9,18.1,35.5,16.6,35.1L16.6,35.1z M11,36.3L8.9,35
		c0.2-0.2,0.3-0.4,0.3-0.7l0-0.3c0.6,0.3,1.2,0.5,1.8,0.5c0.6,0,1.3-0.2,1.8-0.5v0.2c0,0.3,0.1,0.5,0.3,0.8L11,36.3z M8,29.4
		c0-0.6,0.3-1.5,0.4-2c2.7,0.1,4.8,0.7,5.6,1v1.3c0,1.1-0.4,2-1,2.7c0,0,0,0,0,0c-0.5,0.6-1.2,0.9-2,0.9c-1.6,0-3-1.8-3-3.8V29.4z
		 M8.6,24.4C8.6,24.4,8.6,24.4,8.6,24.4C8.6,24.4,8.6,24.4,8.6,24.4C8.6,24.4,8.6,24.4,8.6,24.4c0.1,0,0.1,0,0.1,0c0,0,0,0,0,0
		c0,0,0,0,0,0c0,0,0,0,0,0c0,0,0,0,0,0c0,0,0,0,0,0c0,0,0,0,0,0c0,0,0,0,0,0c0,0,0,0,0,0c0,0,0,0,0,0c0,0,0,0,0,0
		c0.9-0.7,2-0.4,3.3-0.2c0.7,0.2,1.3,0.3,2,0.3c0.2,0.6,0.3,1.6,0.1,2.8c-1-0.4-3.3-1.1-6.3-1.1c0,0,0,0,0,0c0,0,0,0,0,0
		c0,0,0,0,0,0c0,0,0,0,0,0c0,0,0,0,0,0c0,0,0,0,0,0c0,0,0,0,0,0c0,0,0,0,0,0c0,0,0,0,0,0c0,0,0,0,0,0c0,0,0,0,0,0c0,0,0,0,0,0
		c0,0,0,0,0,0c0,0,0,0,0,0c0,0,0,0,0,0c0,0,0,0,0,0c0,0,0,0,0,0c0,0,0,0,0,0c0,0,0,0,0,0c0,0,0,0,0,0c0,0,0,0,0,0c0,0,0,0,0,0
		c0,0,0,0,0,0c0,0,0,0,0,0c0,0,0,0,0,0c0-0.3-0.1-0.5-0.1-0.8C7.4,25.1,7.7,24.4,8.6,24.4L8.6,24.4z M4.5,38.8
		c-0.1,0-0.2-0.1-0.2-0.1v-0.6c0-0.7,0.4-1.6,1.3-1.8l2-0.5l2.7,1.6v1.5L4.5,38.8z M17.6,38.7c0,0-0.1,0.1-0.2,0.1l-5.8,0v-1.5
		l2.7-1.6l2,0.5c0.8,0.2,1.3,1.1,1.3,1.8V38.7z M17.6,38.7"/>
	<path class="st0" d="M34.7,35.1C34.7,35.1,34.7,35.1,34.7,35.1l-2.3-0.6c-0.2-0.1-0.3-0.2-0.4-0.2l0-1.2c0,0,0,0,0,0
		c0.8-0.9,1.2-2.1,1.2-3.4v-0.9c0.8-2.5,0.2-4.7-0.1-5.3c0,0,0,0,0,0c0,0,0,0,0,0c0,0,0,0,0,0c0,0,0,0,0,0c0,0,0,0,0,0c0,0,0,0,0,0
		c0,0,0,0,0,0c0,0,0,0,0,0c0,0,0,0,0,0c0,0,0,0,0,0c0,0,0,0,0,0c0,0,0,0,0,0c0,0,0,0,0,0c0,0,0,0,0,0c0,0,0,0,0,0c0,0,0,0,0,0
		c0,0,0,0,0,0c0,0,0,0,0,0c0,0,0,0,0,0c0,0,0,0,0,0c0,0,0,0,0,0c0,0,0,0,0,0c0,0,0,0,0,0c0,0,0,0,0,0c0,0,0,0,0,0c0,0,0,0,0,0
		c0,0,0,0,0,0c0,0,0,0,0,0c-0.6,0.1-1.3-0.1-2-0.3c-1.3-0.3-2.8-0.7-4.1,0.3c-1.3,0.1-2.2,1.2-2.2,2.6c0,1,0.5,2.9,0.6,3.3v0.5
		c0,1.3,0.4,2.5,1.2,3.4l0,1.3c0,0.1-0.2,0.1-0.4,0.2l-2.2,0.6c0,0,0,0,0,0c-1.4,0.4-2.2,1.8-2.2,3v0.6c0,0.7,0.6,1.3,1.4,1.3l6.4,0
		c0,0,0,0,0,0c0,0,0,0,0,0l6.4,0c0.8,0,1.4-0.6,1.4-1.3v-0.6C36.9,36.9,36.1,35.5,34.7,35.1L34.7,35.1z M29,36.3L26.9,35
		c0.2-0.2,0.3-0.4,0.3-0.7l0-0.3c0.6,0.3,1.2,0.5,1.8,0.5c0.6,0,1.3-0.2,1.8-0.5v0.2c0,0.3,0.1,0.5,0.3,0.8L29,36.3z M26,29.4
		c0-0.6,0.3-1.5,0.4-2c2.7,0.1,4.8,0.7,5.6,1v1.3c0,1.1-0.4,2-1,2.7c0,0,0,0,0,0c-0.5,0.6-1.2,0.9-2,0.9c-1.6,0-3-1.8-3-3.8V29.4z
		 M26.6,24.4C26.6,24.4,26.6,24.4,26.6,24.4C26.6,24.4,26.7,24.4,26.6,24.4C26.7,24.4,26.7,24.4,26.6,24.4c0.1,0,0.1,0,0.1,0
		c0,0,0,0,0,0c0,0,0,0,0,0c0,0,0,0,0,0c0,0,0,0,0,0c0,0,0,0,0,0c0,0,0,0,0,0c0,0,0,0,0,0c0,0,0,0,0,0c0,0,0,0,0,0c0,0,0,0,0,0
		c0.9-0.7,2-0.4,3.3-0.2c0.7,0.2,1.3,0.3,2,0.3c0.2,0.6,0.3,1.6,0.1,2.8c-1-0.4-3.3-1.1-6.3-1.1c0,0,0,0,0,0c0,0,0,0,0,0
		c0,0,0,0,0,0c0,0,0,0,0,0c0,0,0,0,0,0c0,0,0,0,0,0c0,0,0,0,0,0c0,0,0,0,0,0c0,0,0,0,0,0c0,0,0,0,0,0c0,0,0,0,0,0c0,0,0,0,0,0
		c0,0,0,0,0,0c0,0,0,0,0,0c0,0,0,0,0,0c0,0,0,0,0,0c0,0,0,0,0,0c0,0,0,0,0,0c0,0,0,0,0,0c0,0,0,0,0,0c0,0,0,0,0,0c0,0,0,0,0,0
		c0,0,0,0,0,0c0,0,0,0,0,0c0,0,0,0,0,0c0-0.3-0.1-0.5-0.1-0.8C25.4,25.1,25.8,24.4,26.6,24.4L26.6,24.4z M22.6,38.8
		c-0.1,0-0.2-0.1-0.2-0.1v-0.6c0-0.7,0.4-1.6,1.3-1.8l2-0.5l2.7,1.6v1.5L22.6,38.8z M35.7,38.7c0,0-0.1,0.1-0.2,0.1l-5.8,0v-1.5
		l2.7-1.6l2,0.5c0.8,0.2,1.3,1.1,1.3,1.8V38.7z M35.7,38.7"/>
	<path class="st0" d="M36.2,6.3h-12c-0.3,0-0.6,0.3-0.6,0.6c0,0.3,0.3,0.6,0.6,0.6h12c1,0,1.8,0.8,1.8,1.8v8.4c0,1-0.8,1.8-1.8,1.8
		H23.6c-0.3,0-0.6,0.3-0.6,0.6v1.6l-2-2c-0.2-0.2-0.6-0.2-0.9,0c-0.2,0.2-0.2,0.6,0,0.9l3,3c0.1,0.1,0.3,0.2,0.4,0.2
		c0.1,0,0.2,0,0.2,0c0.2-0.1,0.4-0.3,0.4-0.6v-2.4h12c1.7,0,3-1.3,3-3V9.3C39.3,7.7,37.9,6.3,36.2,6.3L36.2,6.3z M36.2,6.3"/>
	<path class="st0" d="M22.4,15.3V6.9c0-1.7-1.3-3-3-3H3.8c-1.7,0-3,1.3-3,3v8.4c0,1.7,1.3,3,3,3h8.4v2.4c0,0.2,0.1,0.5,0.4,0.6
		c0.1,0,0.2,0,0.2,0c0.2,0,0.3-0.1,0.4-0.2l2.8-2.8h3.4C21.1,18.3,22.4,17,22.4,15.3L22.4,15.3z M21.2,15.3c0,1-0.8,1.8-1.8,1.8
		h-3.6c-0.2,0-0.3,0.1-0.4,0.2l-2,2v-1.6c0-0.3-0.3-0.6-0.6-0.6h-9c-1,0-1.8-0.8-1.8-1.8V6.9c0-1,0.8-1.8,1.8-1.8h15.6
		c1,0,1.8,0.8,1.8,1.8V15.3z M21.2,15.3"/>
	<path class="st0" d="M4.4,8.1h1.8c0.3,0,0.6-0.3,0.6-0.6c0-0.3-0.3-0.6-0.6-0.6H4.4C4,6.9,3.8,7.2,3.8,7.5C3.8,7.8,4,8.1,4.4,8.1
		L4.4,8.1z M4.4,8.1"/>
	<path class="st0" d="M18.8,6.9H8.6C8.2,6.9,8,7.2,8,7.5c0,0.3,0.3,0.6,0.6,0.6h10.2c0.3,0,0.6-0.3,0.6-0.6
		C19.4,7.2,19.1,6.9,18.8,6.9L18.8,6.9z M18.8,6.9"/>
	<path class="st0" d="M18.8,9.3H4.4C4,9.3,3.8,9.6,3.8,9.9c0,0.3,0.3,0.6,0.6,0.6h14.4c0.3,0,0.6-0.3,0.6-0.6
		C19.4,9.6,19.1,9.3,18.8,9.3L18.8,9.3z M18.8,9.3"/>
	<path class="st0" d="M18.8,11.7H17c-0.3,0-0.6,0.3-0.6,0.6c0,0.3,0.3,0.6,0.6,0.6h1.8c0.3,0,0.6-0.3,0.6-0.6
		C19.4,12,19.1,11.7,18.8,11.7L18.8,11.7z M18.8,11.7"/>
	<path class="st0" d="M4.4,12.9h10.2c0.3,0,0.6-0.3,0.6-0.6c0-0.3-0.3-0.6-0.6-0.6H4.4c-0.3,0-0.6,0.3-0.6,0.6
		C3.8,12.7,4,12.9,4.4,12.9L4.4,12.9z M4.4,12.9"/>
	<path class="st0" d="M18.8,14.1H4.4c-0.3,0-0.6,0.3-0.6,0.6c0,0.3,0.3,0.6,0.6,0.6h14.4c0.3,0,0.6-0.3,0.6-0.6
		C19.4,14.4,19.1,14.1,18.8,14.1L18.8,14.1z M18.8,14.1"/>
	<path class="st0" d="M24.2,10.5H26c0.3,0,0.6-0.3,0.6-0.6c0-0.3-0.3-0.6-0.6-0.6h-1.8c-0.3,0-0.6,0.3-0.6,0.6
		C23.6,10.2,23.9,10.5,24.2,10.5L24.2,10.5z M24.2,10.5"/>
	<path class="st0" d="M35.6,10.5c0.3,0,0.6-0.3,0.6-0.6c0-0.3-0.3-0.6-0.6-0.6h-7.2c-0.3,0-0.6,0.3-0.6,0.6c0,0.3,0.3,0.6,0.6,0.6
		H35.6z M35.6,10.5"/>
	<path class="st0" d="M24.2,12.9h11.4c0.3,0,0.6-0.3,0.6-0.6c0-0.3-0.3-0.6-0.6-0.6H24.2c-0.3,0-0.6,0.3-0.6,0.6
		C23.6,12.7,23.9,12.9,24.2,12.9L24.2,12.9z M24.2,12.9"/>
	<path class="st0" d="M35.6,14.1h-1.8c-0.3,0-0.6,0.3-0.6,0.6c0,0.3,0.3,0.6,0.6,0.6h1.8c0.3,0,0.6-0.3,0.6-0.6
		C36.2,14.4,36,14.1,35.6,14.1L35.6,14.1z M35.6,14.1"/>
	<path class="st0" d="M24.2,15.3h7.2c0.3,0,0.6-0.3,0.6-0.6c0-0.3-0.3-0.6-0.6-0.6h-7.2c-0.3,0-0.6,0.3-0.6,0.6
		C23.6,15.1,23.9,15.3,24.2,15.3L24.2,15.3z M24.2,15.3"/>
	<path class="st0" d="M24.2,17.7h11.4c0.3,0,0.6-0.3,0.6-0.6c0-0.3-0.3-0.6-0.6-0.6H24.2c-0.3,0-0.6,0.3-0.6,0.6
		C23.6,17.5,23.9,17.7,24.2,17.7L24.2,17.7z M24.2,17.7"/>
</g>
</svg>
