<?xml version="1.0" encoding="utf-8"?>
<!-- Generator: Adobe Illustrator 20.1.0, SVG Export Plug-In . SVG Version: 6.00 Build 0)  -->
<svg version="1.1" id="Sites" xmlns="http://www.w3.org/2000/svg" xmlns:xlink="http://www.w3.org/1999/xlink" x="0px" y="0px"
	 viewBox="0 0 85 85" style="enable-background:new 0 0 85 85;" xml:space="preserve">
<style type="text/css">
	.st0{fill:#FFFFFF;}
</style>
<g>
	<path class="st0" d="M36.7,58.6H7.7c-0.7,0-1.2-0.6-1.2-1.2V10.1c0-0.7,0.6-1.2,1.2-1.2h69.7c0.7,0,1.2,0.6,1.2,1.2v10.4
		c2,0.2,4,0.9,5.6,2V10.1c0-3.8-3.1-6.8-6.8-6.8H7.7c-3.7,0-6.8,3.1-6.8,6.8v47.3c0,3.8,3.1,6.8,6.8,6.8H31v9.1h-3.7
		c-2.3,0-4.2,1.9-4.2,4.2c0,2.3,1.9,4.2,4.2,4.2h11.7c-1.5-2.1-2.4-4.6-2.4-7.3V58.6z M36.7,58.6"/>
	<path class="st0" d="M60.1,77.5v-6H47.9V33c0-0.8,0.7-1.5,1.5-1.5h27.7c0.8,0,1.5,0.7,1.5,1.5v11.9h2.1c1.3,0,2.5,0.4,3.5,1V33
		c0-3.9-3.2-7-7-7H49.4c-3.9,0-7,3.2-7,7v41.4c0,3.9,3.2,7,7,7h12C60.6,80.3,60.1,78.8,60.1,77.5L60.1,77.5z M60.1,77.5"/>
	<path class="st0" d="M80.6,48.3H67.1c-1.9,0-3.5,1.6-3.5,3.5v25.6c0,1.9,1.6,3.5,3.5,3.5h13.5c1.9,0,3.5-1.6,3.5-3.5V51.8
		C84.1,49.9,82.6,48.3,80.6,48.3L80.6,48.3z M67.8,52.5h12.1v22.1H67.8V52.5z M73.9,79.3c-0.4,0-0.7-0.2-1-0.4
		c-0.3-0.3-0.5-0.6-0.5-1.1c0-0.8,0.7-1.5,1.5-1.5c0.8,0,1.5,0.7,1.5,1.5c0,0.4-0.2,0.8-0.5,1.1C74.6,79.1,74.3,79.3,73.9,79.3
		L73.9,79.3z M73.9,79.3"/>
</g>
</svg>
