<?xml version="1.0" encoding="utf-8"?>
<!-- Generator: Adobe Illustrator 20.1.0, SVG Export Plug-In . SVG Version: 6.00 Build 0)  -->
<svg version="1.1" id="planejamento" xmlns="http://www.w3.org/2000/svg" xmlns:xlink="http://www.w3.org/1999/xlink" x="0px"
	 y="0px" viewBox="0 0 85 85" style="enable-background:new 0 0 85 85;" xml:space="preserve">
<style type="text/css">
	.st0{fill:#FFFFFF;}
</style>
<g>
	<path class="st0" d="M83.1,20.7c0-2.3-1.8-4.1-4.1-4.1H43.8v-1.8c1.6-0.6,2.8-2.1,2.8-3.9c0-2.3-1.8-4.1-4.1-4.1
		c-2.3,0-4.1,1.8-4.1,4.1c0,1.8,1.2,3.4,2.8,3.9v1.8H6c-2.3,0-4.1,1.8-4.1,4.1c0,1.8,1.2,3.4,2.8,3.9v49.4c0,2.3,1.8,4.1,4.1,4.1
		h67.4c2.3,0,4.1-1.8,4.1-4.1V24.7C81.9,24.1,83.1,22.6,83.1,20.7L83.1,20.7z M42.5,9.4c0.8,0,1.5,0.7,1.5,1.5
		c0,0.8-0.7,1.5-1.5,1.5S41,11.7,41,10.9C41,10.1,41.7,9.4,42.5,9.4L42.5,9.4z M76.2,75.6H8.8c-0.8,0-1.5-0.7-1.5-1.5V24.9h70.3
		v49.2C77.7,74.9,77,75.6,76.2,75.6L76.2,75.6z M79,22.2H6c-0.8,0-1.5-0.7-1.5-1.5c0-0.8,0.7-1.5,1.5-1.5h73c0.8,0,1.5,0.7,1.5,1.5
		C80.5,21.6,79.8,22.2,79,22.2L79,22.2z M79,22.2"/>
	<path class="st0" d="M32.2,62.4L58,36.6v3.8c0,0.7,0.6,1.3,1.3,1.3c0.7,0,1.3-0.6,1.3-1.3v-7c0-0.7-0.6-1.3-1.3-1.3h-7
		c-0.7,0-1.3,0.6-1.3,1.3c0,0.7,0.6,1.3,1.3,1.3h3.8L30.3,60.5c0,0,0,0,0,0c-0.6-0.3-1.2-0.4-1.8-0.4c-2.3,0-4.1,1.8-4.1,4.1
		c0,2.3,1.8,4.1,4.1,4.1c2.3,0,4.1-1.8,4.1-4.1C32.6,63.6,32.4,63,32.2,62.4C32.2,62.4,32.2,62.4,32.2,62.4L32.2,62.4z M28.5,65.7
		c-0.8,0-1.5-0.7-1.5-1.5c0-0.8,0.7-1.5,1.5-1.5c0.8,0,1.5,0.7,1.5,1.5C30,65.1,29.3,65.7,28.5,65.7L28.5,65.7z M28.5,65.7"/>
	<path class="st0" d="M24.7,39.9c0.3,0.3,0.6,0.4,0.9,0.4c0.3,0,0.7-0.1,0.9-0.4l1.9-1.9l1.9,1.9c0.3,0.3,0.6,0.4,0.9,0.4
		c0.3,0,0.7-0.1,0.9-0.4c0.5-0.5,0.5-1.3,0-1.9l-1.9-1.9l1.9-1.9c0.5-0.5,0.5-1.3,0-1.9c-0.5-0.5-1.3-0.5-1.9,0l-1.9,1.9l-1.9-1.9
		c-0.5-0.5-1.3-0.5-1.9,0c-0.5,0.5-0.5,1.3,0,1.9l1.9,1.9l-1.9,1.9C24.2,38.6,24.2,39.4,24.7,39.9L24.7,39.9z M24.7,39.9"/>
	<path class="st0" d="M38.8,39.9c0.3,0.3,0.6,0.4,0.9,0.4c0.3,0,0.7-0.1,0.9-0.4l1.9-1.9l1.9,1.9c0.3,0.3,0.6,0.4,0.9,0.4
		c0.3,0,0.7-0.1,0.9-0.4c0.5-0.5,0.5-1.3,0-1.9l-1.9-1.9l1.9-1.9c0.5-0.5,0.5-1.3,0-1.9c-0.5-0.5-1.3-0.5-1.9,0l-1.9,1.9l-1.9-1.9
		c-0.5-0.5-1.3-0.5-1.9,0c-0.5,0.5-0.5,1.3,0,1.9l1.9,1.9l-1.9,1.9C38.2,38.6,38.2,39.4,38.8,39.9L38.8,39.9z M38.8,39.9"/>
	<path class="st0" d="M24.7,54c0.3,0.3,0.6,0.4,0.9,0.4c0.3,0,0.7-0.1,0.9-0.4l1.9-1.9l1.9,1.9c0.3,0.3,0.6,0.4,0.9,0.4
		c0.3,0,0.7-0.1,0.9-0.4c0.5-0.5,0.5-1.3,0-1.9l-1.9-1.9l1.9-1.9c0.5-0.5,0.5-1.3,0-1.9c-0.5-0.5-1.3-0.5-1.9,0l-1.9,1.9l-1.9-1.9
		c-0.5-0.5-1.3-0.5-1.9,0c-0.5,0.5-0.5,1.3,0,1.9l1.9,1.9l-1.9,1.9C24.2,52.6,24.2,53.4,24.7,54L24.7,54z M24.7,54"/>
	<path class="st0" d="M60.3,60.5c-0.5-0.5-1.3-0.5-1.9,0l-1.9,1.9l-1.9-1.9c-0.5-0.5-1.3-0.5-1.9,0c-0.5,0.5-0.5,1.3,0,1.9l1.9,1.9
		l-1.9,1.9c-0.5,0.5-0.5,1.3,0,1.9c0.3,0.3,0.6,0.4,0.9,0.4c0.3,0,0.7-0.1,0.9-0.4l1.9-1.9l1.9,1.9c0.3,0.3,0.6,0.4,0.9,0.4
		c0.3,0,0.7-0.1,0.9-0.4c0.5-0.5,0.5-1.3,0-1.9l-1.9-1.9l1.9-1.9C60.8,61.9,60.8,61,60.3,60.5L60.3,60.5z M60.3,60.5"/>
	<path class="st0" d="M46.2,60.5c-0.5-0.5-1.3-0.5-1.9,0l-1.9,1.9l-1.9-1.9c-0.5-0.5-1.3-0.5-1.9,0c-0.5,0.5-0.5,1.3,0,1.9l1.9,1.9
		l-1.9,1.9c-0.5,0.5-0.5,1.3,0,1.9c0.3,0.3,0.6,0.4,0.9,0.4c0.3,0,0.7-0.1,0.9-0.4l1.9-1.9l1.9,1.9c0.3,0.3,0.6,0.4,0.9,0.4
		c0.3,0,0.7-0.1,0.9-0.4c0.5-0.5,0.5-1.3,0-1.9l-1.9-1.9l1.9-1.9C46.8,61.9,46.8,61,46.2,60.5L46.2,60.5z M46.2,60.5"/>
	<path class="st0" d="M60.3,46.5c-0.5-0.5-1.3-0.5-1.9,0l-1.9,1.9l-1.9-1.9c-0.5-0.5-1.3-0.5-1.9,0c-0.5,0.5-0.5,1.3,0,1.9l1.9,1.9
		l-1.9,1.9c-0.5,0.5-0.5,1.3,0,1.9c0.3,0.3,0.6,0.4,0.9,0.4c0.3,0,0.7-0.1,0.9-0.4l1.9-1.9l1.9,1.9c0.3,0.3,0.6,0.4,0.9,0.4
		c0.3,0,0.7-0.1,0.9-0.4c0.5-0.5,0.5-1.3,0-1.9l-1.9-1.9l1.9-1.9C60.8,47.8,60.8,47,60.3,46.5L60.3,46.5z M60.3,46.5"/>
</g>
</svg>
