<?xml version="1.0" encoding="utf-8"?>
<!-- Generator: Adobe Illustrator 20.1.0, SVG Export Plug-In . SVG Version: 6.00 Build 0)  -->
<svg version="1.1" id="mkt_x5F_digital" xmlns="http://www.w3.org/2000/svg" xmlns:xlink="http://www.w3.org/1999/xlink" x="0px"
	 y="0px" viewBox="0 0 85 85" style="enable-background:new 0 0 85 85;" xml:space="preserve">
<style type="text/css">
	.st0{fill:#FFFFFF;}
</style>
<g>
	<path class="st0" d="M66.5,54.2c-4.7,0-8.9,2.2-11.6,5.7L32.3,47.3c0.5-1.5,0.8-3.1,0.8-4.8c0-1.7-0.3-3.3-0.8-4.8l22.5-12.6
		c2.7,3.5,6.9,5.8,11.6,5.8c8.1,0,14.7-6.6,14.7-14.7S74.5,1.5,66.4,1.5S51.8,8.1,51.8,16.2c0,1.7,0.3,3.3,0.8,4.9L30.1,33.6
		c-2.7-3.5-6.9-5.8-11.6-5.8c-8.1,0-14.7,6.6-14.7,14.7s6.6,14.7,14.7,14.7c4.7,0,9-2.3,11.6-5.8l22.5,12.6
		c-0.5,1.5-0.9,3.2-0.9,4.9c0,8.1,6.6,14.7,14.7,14.7s14.7-6.6,14.7-14.7S74.5,54.2,66.5,54.2L66.5,54.2z M66.5,6.1
		c5.5,0,10.1,4.5,10.1,10.1c0,5.5-4.5,10.1-10.1,10.1c-5.5,0-10.1-4.5-10.1-10.1C56.4,10.6,60.9,6.1,66.5,6.1L66.5,6.1z M18.5,52.5
		C13,52.5,8.5,48,8.5,42.5c0-5.5,4.5-10.1,10.1-10.1c5.5,0,10.1,4.5,10.1,10.1C28.6,48,24.1,52.5,18.5,52.5L18.5,52.5z M66.5,78.9
		c-5.5,0-10.1-4.5-10.1-10.1c0-5.5,4.5-10.1,10.1-10.1c5.5,0,10.1,4.5,10.1,10.1C76.5,74.4,72,78.9,66.5,78.9L66.5,78.9z M66.5,78.9
		"/>
</g>
</svg>
