<?xml version="1.0" encoding="utf-8"?>
<!-- Generator: Adobe Illustrator 20.1.0, SVG Export Plug-In . SVG Version: 6.00 Build 0)  -->
<svg version="1.1" id="sistemas" xmlns="http://www.w3.org/2000/svg" xmlns:xlink="http://www.w3.org/1999/xlink" x="0px" y="0px"
	 viewBox="0 0 85 85" style="enable-background:new 0 0 85 85;" xml:space="preserve">
<style type="text/css">
	.st0{fill:#FFFFFF;}
</style>
<g>
	<path class="st0" d="M73.8,2.6H11.2c-3.5,0-6.3,2.8-6.3,6.3v67.4c0,3.4,2.8,6.2,6.3,6.2h62.6c3.5,0,6.3-2.8,6.3-6.2V8.8
		C80.1,5.4,77.3,2.6,73.8,2.6L73.8,2.6z M77,76.2c0,1.7-1.4,3.1-3.1,3.1H11.2c-1.7,0-3.1-1.4-3.1-3.1V21.4H77V76.2z M77,18.2H8V8.8
		c0-1.7,1.4-3.1,3.1-3.1h62.6c1.7,0,3.1,1.4,3.1,3.1V18.2z M77,18.2"/>
	<path class="st0" d="M19,12c0,1.7-1.4,3.1-3.1,3.1c-1.7,0-3.1-1.4-3.1-3.1s1.4-3.1,3.1-3.1C17.6,8.8,19,10.2,19,12L19,12z M19,12"
		/>
	<path class="st0" d="M28.4,12c0,1.7-1.4,3.1-3.1,3.1s-3.1-1.4-3.1-3.1s1.4-3.1,3.1-3.1S28.4,10.2,28.4,12L28.4,12z M28.4,12"/>
	<path class="st0" d="M37.8,12c0,1.7-1.4,3.1-3.1,3.1s-3.1-1.4-3.1-3.1s1.4-3.1,3.1-3.1S37.8,10.2,37.8,12L37.8,12z M37.8,12"/>
	<rect x="41.6" y="41.1" class="st0" width="3.4" height="3.4"/>
	<path class="st0" d="M66.1,47.9c-0.5-0.4-0.9-1.1-1.1-1.8c-0.2-0.8-0.3-2.2-0.3-4.2c0-2-0.1-3.5-0.2-4.4c-0.1-0.9-0.4-1.6-0.9-2.2
		c-0.5-0.6-1.1-1-1.8-1.2c-0.5-0.2-1.3-0.3-2.4-0.3h-0.9v2.6H59c1.1,0,1.8,0.1,2.1,0.4c0.4,0.3,0.6,0.8,0.7,1.6
		c0.1,0.4,0.1,1.7,0.1,3.9c0,2.4,0.3,4.1,0.8,5.1c0.5,1,1.4,1.8,2.7,2.4c-1,0.4-1.7,1-2.3,1.7c-0.5,0.7-0.9,1.7-1.1,3
		c-0.1,0.8-0.2,2.5-0.2,5.3c0,1.5-0.2,2.4-0.6,2.8c-0.4,0.4-1.2,0.6-2.3,0.6h-0.5v2.6h0.9c1,0,1.7-0.1,2.1-0.2
		c0.6-0.2,1.1-0.4,1.5-0.8c0.4-0.3,0.7-0.8,1-1.4c0.3-0.6,0.5-1.3,0.6-2.3c0.1-0.6,0.1-1.8,0.1-3.7c0-1.9,0.1-3.2,0.3-4
		c0.2-0.8,0.5-1.4,1.1-1.8c0.5-0.4,1.2-0.7,2.1-0.7v-2.7C67.3,48.6,66.6,48.4,66.1,47.9L66.1,47.9z M66.1,47.9"/>
	<path class="st0" d="M23.5,48.3c0.5-0.7,0.8-1.6,1-2.8c0.1-0.8,0.2-2.6,0.2-5.6c0-1.5,0.2-2.4,0.6-2.8c0.4-0.4,1.2-0.6,2.3-0.6h0.5
		v-2.6h-0.9c-1,0-1.7,0.1-2.1,0.2c-0.6,0.2-1.1,0.4-1.5,0.8c-0.4,0.3-0.7,0.8-1,1.4c-0.3,0.6-0.5,1.3-0.6,2.3
		c-0.1,0.6-0.1,1.8-0.1,3.7c0,1.9-0.1,3.2-0.3,4c-0.2,0.8-0.5,1.4-1.1,1.8c-0.5,0.4-1.2,0.7-2.1,0.7v2.7c0.9,0,1.6,0.3,2.1,0.7
		c0.5,0.4,0.9,1.1,1.1,1.8c0.2,0.8,0.3,2.2,0.3,4.2c0,2,0.1,3.5,0.2,4.4c0.1,0.9,0.4,1.6,0.9,2.2c0.5,0.6,1.1,1,1.8,1.3
		c0.5,0.2,1.3,0.3,2.4,0.3h0.9v-2.6h-0.5c-1.1,0-1.8-0.2-2.1-0.5c-0.4-0.3-0.6-0.8-0.7-1.6c0-0.4-0.1-1.7-0.1-3.9
		c0-2.4-0.3-4.1-0.8-5.2c-0.6-1.1-1.4-1.8-2.7-2.4C22.3,49.5,23,48.9,23.5,48.3L23.5,48.3z M23.5,48.3"/>
	<path class="st0" d="M41.6,55.5v3.4h1.7c0,1-0.2,1.8-0.5,2.3c-0.3,0.5-0.8,1-1.4,1.2l0.8,1.3c1-0.4,1.7-1,2.1-1.8
		c0.4-0.8,0.7-1.8,0.7-3.1v-3.4H41.6z M41.6,55.5"/>
</g>
</svg>
