<?xml version="1.0" encoding="utf-8"?>
<!-- Generator: Adobe Illustrator 20.1.0, SVG Export Plug-In . SVG Version: 6.00 Build 0)  -->
<svg version="1.1" id="Isolation_Mode" xmlns="http://www.w3.org/2000/svg" xmlns:xlink="http://www.w3.org/1999/xlink" x="0px"
	 y="0px" viewBox="0 0 325 61.1" style="enable-background:new 0 0 325 61.1;" xml:space="preserve">
<style type="text/css">
	.st0{fill:#26AAE1;}
	.st1{fill-rule:evenodd;clip-rule:evenodd;fill:#00A550;}
	.st2{fill:#FBED1F;}
	.st3{fill-rule:evenodd;clip-rule:evenodd;fill:#26AAE1;}
</style>
<g>
	<path class="st0" d="M302,11.4l-6,21.6c-1.4,5-2.9,8.3-4.6,10c-1.7,1.6-4.1,2.5-7.2,2.5c-2.7,0-4.5-0.8-5.3-2.6
		c-0.8-1.7-0.7-4.4,0.3-8l0.3-0.9l-19.8,0.3l-0.8,2.7c-2.4,8.7-1.4,14.9,3,18.7c4.4,3.8,6.7,5.7,19.4,5.4c6.8-0.2,6.8-0.2,11.9-1.6
		c5.2-1.4,9.3-4.2,12.6-7c2.3-2,4.1-4.4,5.6-7.2c1.5-2.8,3.2-7.7,5.1-14.6l5.4-19.2H302z"/>
	<polygon class="st0" points="245.9,0 235.9,35.2 219,0 192.4,0 175.1,61 195.2,61 205.4,25.3 224.4,61 248.3,61 265.7,0 	"/>
	<path class="st0" d="M184.2,16.5c0.8-3,0.9-5.6,0.2-7.8c-0.7-2.3-2.2-4.1-4.4-5.4c-1.7-1.1-4.4-1.9-7.8-2.4
		c-3.5-0.5-8.3-0.8-14.3-0.8h-38.2l-17.3,61h19.9l5.3-18.6h16.1c3.3,0,5.6,0.5,6.8,1.4c1.2,0.9,1.6,2.5,1.2,4.7
		c-0.2,1.2-0.5,2.9-1.1,5c-1,3.7-1.2,6.2-0.6,7.5h22.6l0.3-0.9c-1.8-0.9-1.7-5.3,0.1-13.3c0.2-0.8,0.4-1.5,0.5-1.9
		c1-4.2,1.1-7.2,0.3-8.8c-0.8-1.6-2.5-3-5.3-4.2c3.9-1.2,7.3-3.2,10.1-5.9C181.2,23.2,183.1,20.1,184.2,16.5z M160.5,20.8
		c-0.6,2-1.8,3.4-3.7,4.3c-1.9,0.9-4.9,1.3-9,1.3h-15.7l3.1-10.9h15c4.7,0,7.8,0.4,9.1,1.2C160.7,17.5,161.1,18.9,160.5,20.8z"/>
	<polygon class="st1" points="305.2,0 325,0 322.3,10.6 302.5,10.6 	"/>
	<polygon class="st2" points="314.9,1 322,5.3 312.6,9.6 305.5,5.3 	"/>
	<path class="st3" d="M310.3,5.3c0.4-1.6,2.3-2.8,4.2-2.8c1.9,0,3.2,1.3,2.7,2.8c-0.4,1.6-2.3,2.9-4.2,2.9
		C311.1,8.2,309.9,6.9,310.3,5.3z"/>
	<g>
		<path class="st3" d="M24.5,0.1c5.4,2.1,9,4.8,8.8,7.8C33.3,8,33.2,8,33.2,8.1c0,0.1,0,0.2,0.1,0.3C32.5,11,29,12,24.1,11.9
			c12.6,2.2,24.4,6.4,24.1,11.9c0,0.1-0.1,0.1-0.2,0.2c0,0.1,0.1,0.2,0.1,0.3c-0.8,2.6-4.3,3.6-9.1,3.5C51.6,30,63.4,34.2,63,39.7
			c0,0.1-0.1,0.1-0.2,0.2c0,0.1,0,0.2,0.1,0.3c-0.8,2.6-4.3,3.6-9.1,3.6c12.6,2.2,24.4,6.4,24.1,11.9c-0.1,0.1-0.1,0.1-0.2,0.2
			c0,0.1,0.1,0.2,0.1,0.3c-0.8,2.6-4.3,3.6-9.1,3.6c2.2,0.4,4.3,0.8,6.4,1.3h10.4L28.5,0.1H24.5z"/>
		<path class="st3" d="M91.1,47.1c-1.4,3.6-3.8,5.8-7.2,5.6c-0.1,0-0.2-0.1-0.3-0.1c-0.1,0-0.2,0-0.3,0.1
			c-6.9-1.5-8.3-11.4-7.1-21.4c-1.4,3.6-3.7,5.8-7.2,5.6c-0.1,0-0.2-0.1-0.3-0.1c-0.1,0-0.2,0-0.3,0.1c-6.9-1.5-8.3-11.4-7.1-21.4
			c-1.4,3.6-3.8,5.8-7.2,5.6c-0.1,0-0.2-0.1-0.3-0.1c-0.1,0-0.2,0-0.3,0.1c-6.7-1.4-8.3-11.1-7.1-20.8h-0.2c-1.4,3.3-3.7,5.3-7,5
			C39,5.1,38.9,5,38.8,5c-0.1,0-0.2,0-0.3,0c-2.6-0.6-4.5-2.4-5.6-5h-1.6l57.3,60.9h3.1C90.6,57,90.5,52.1,91.1,47.1z"/>
		<path class="st3" d="M74.6,0.3c2.3,6,3.7,15,3.2,22.7c1.9-6.6,4.8-12,7.7-13c4.6,2.9,8,17.5,7.2,28.8c1.9-6.6,4.8-12,7.7-13
			c1.9,1.2,3.5,4.2,4.8,8.2v-3.5C105.2,14.8,91.7,1.8,74.6,0.3z"/>
		<path class="st3" d="M62.8,7.1c0.7-2.6,1.6-4.9,2.6-7h-2.6C62.9,2.5,63,4.9,62.8,7.1z"/>
		<path class="st3" d="M13.3,10.6C9,9.7,4.4,8.4,0,6.9v3.7C3.4,10.2,8.1,10.2,13.3,10.6z"/>
		<path class="st3" d="M24.7,44c2.1-1.9,9.6-2.3,18.4-1.6c-14.2-2.9-31.1-10-33.2-14.3c2.1-1.9,9.6-2.3,18.4-1.6
			C18,24.4,6.5,20.2,0,16.4v14.1c0,16.7,15.2,30.4,33.8,30.4h6.4c-0.3-0.4-0.6-0.7-0.8-1.1c2.1-1.9,9.6-2.3,18.4-1.6
			C43.7,55.3,26.8,48.3,24.7,44z"/>
	</g>
	<line class="st0" x1="296.2" y1="32.4" x2="296.2" y2="32.4"/>
	<path class="st0" d="M75.6,32.4H76c0-0.4,0.1-0.8,0.1-1.2C76,31.6,75.8,32,75.6,32.4z"/>
	<g>
		<path class="st0" d="M76,32.4c0-0.4,0.1-0.8,0.1-1.2c-0.2,0.4-0.3,0.8-0.5,1.2H76z"/>
		<path class="st0" d="M62.8,7.1c0.7-2.6,1.6-4.9,2.6-7h-2.6C62.9,2.5,63,4.9,62.8,7.1z"/>
		<path class="st0" d="M0,6.9v3.7c3.4-0.4,8.1-0.4,13.3,0"/>
	</g>
</g>
</svg>
